<svg width="179" height="260" viewBox="0 0 179 260" fill="none" xmlns="http://www.w3.org/2000/svg">
<ellipse cx="84.9773" cy="160.63" rx="77.1258" ry="77.0143" fill="#FFD558"/>
<path d="M79.4688 102.319L94.343 100.669L99.852 107.82L99.3011 117.722H79.4688V102.319Z" fill="#302F2D"/>
<path d="M83.9092 118.108L78.2786 119.165C78.0669 119.205 77.9026 119.189 77.7856 119.119C77.6776 119.036 77.6037 118.888 77.5638 118.676L75.5256 107.851C75.4858 107.639 75.502 107.48 75.5744 107.374C75.6557 107.255 75.8022 107.176 76.0139 107.136L81.6445 106.079C83.0369 105.818 84.1196 105.903 84.8928 106.334C85.6771 106.764 86.1783 107.557 86.3964 108.716L87.3777 113.928C87.5958 115.087 87.4176 116.008 86.8429 116.692C86.2795 117.375 85.3015 117.847 83.9092 118.108ZM79.8059 109.728L80.8753 115.408L82.8636 115.035C83.1309 114.985 83.3133 114.881 83.4106 114.725C83.5191 114.566 83.5472 114.348 83.4948 114.069L82.7304 110.009C82.678 109.731 82.5734 109.543 82.4167 109.446C82.269 109.335 82.0615 109.305 81.7942 109.355L79.8059 109.728ZM97.1603 115.62L90.7444 116.825C90.5328 116.864 90.3684 116.849 90.2514 116.779C90.1434 116.695 90.0695 116.548 90.0297 116.336L87.9914 105.51C87.9516 105.299 87.9679 105.14 88.0402 105.034C88.1216 104.915 88.2681 104.836 88.4797 104.796L93.8096 103.796C94.9012 103.591 95.7486 103.651 96.3518 103.976C96.9529 104.289 97.3352 104.881 97.4988 105.749L97.6498 106.551C97.7379 107.019 97.7267 107.419 97.6162 107.751C97.5148 108.07 97.3106 108.333 97.0037 108.541C97.7292 108.474 98.3044 108.619 98.7294 108.978C99.1544 109.336 99.4434 109.922 99.5965 110.735L99.8858 112.272C100.062 113.207 99.9247 113.948 99.4739 114.494C99.0342 115.038 98.2631 115.413 97.1603 115.62ZM92.1723 107.043L92.512 108.848L93.9322 108.581C94.1438 108.541 94.2893 108.456 94.3685 108.326C94.4589 108.194 94.4832 108.016 94.4412 107.794L94.3532 107.326C94.3112 107.103 94.2241 106.946 94.0917 106.856C93.9705 106.763 93.8041 106.737 93.5925 106.777L92.1723 107.043ZM92.9964 111.42L93.3675 113.392L95.5396 112.984C95.7512 112.944 95.8967 112.859 95.9759 112.729C96.0664 112.597 96.0906 112.419 96.0487 112.197L95.926 111.545C95.8841 111.322 95.798 111.171 95.6677 111.092C95.5465 110.999 95.3801 110.973 95.1684 111.013L92.9964 111.42Z" fill="#2558DC"/>
<rect x="79.4688" y="138.626" width="28.6467" height="12.1022" fill="#F1F1F1"/>
<path d="M81.5103 183.869C76.7988 183.397 73.0068 182.113 70.1344 180.016C67.2685 177.854 65.8562 175.234 65.8974 172.157L68.864 171.651C68.6374 173.905 69.7082 175.922 72.0765 177.699C74.5178 179.418 77.7624 180.48 81.8102 180.885C85.9908 181.304 89.4517 180.881 92.193 179.616C95.0007 178.357 96.5245 176.533 96.7645 174.146C96.9912 171.892 96.0796 169.959 94.0297 168.347C91.9799 166.735 89.1171 165.209 85.4413 163.769L79.45 161.36C71.4616 158.148 65.5604 154.509 61.7465 150.443C57.9325 146.377 56.3455 141.161 56.9855 134.795C57.4455 130.22 59.1129 126.302 61.9879 123.04C64.9358 119.719 68.7029 117.25 73.2892 115.633C77.9419 114.024 83.0553 113.498 88.6294 114.057C93.6726 114.562 98.1348 115.847 102.016 117.91C105.97 119.914 109.125 122.541 111.479 125.791C113.9 129.048 115.275 132.702 115.605 136.753L112.638 137.26C112.394 133.685 111.211 130.452 109.089 127.561C106.967 124.669 104.121 122.307 100.552 120.476C96.9822 118.645 92.9081 117.5 88.3294 117.041C83.2862 116.535 78.6805 117.011 74.5123 118.469C70.4172 119.866 67.0517 122.007 64.4158 124.891C61.8463 127.781 60.3583 131.249 59.9516 135.293C59.405 140.731 60.8562 145.297 64.3053 148.991C67.8275 152.626 73.2345 155.847 80.5263 158.654L86.5276 160.964C90.9797 162.683 94.3765 164.564 96.7182 166.607C99.0598 168.65 100.077 171.197 99.7706 174.247C99.4306 177.629 97.5946 180.224 94.2624 182.033C90.9369 183.776 86.6862 184.388 81.5103 183.869ZM80.8503 190.434C74.6126 189.808 69.507 187.924 65.5333 184.779C61.6328 181.575 59.5408 177.715 59.2575 173.2L62.3236 172.703C62.4678 176.602 64.215 179.892 67.565 182.572C70.9814 185.258 75.5098 186.884 81.1503 187.45C85.2645 187.862 88.9443 187.595 92.1898 186.648C95.4353 185.701 98.0341 184.186 99.986 182.105C101.938 180.023 103.061 177.524 103.354 174.606C103.761 170.561 102.554 167.225 99.7352 164.599C96.9227 161.906 92.9023 159.56 87.6739 157.563L81.7721 155.263C75.5153 152.828 70.7983 150.077 67.621 147.013C64.4437 143.948 63.0817 140.162 63.535 135.653C63.875 132.271 65.1371 129.384 67.3215 126.99C69.5722 124.604 72.4963 122.854 76.0935 121.741C79.6975 120.562 83.6561 120.189 87.9694 120.621C92.0173 121.027 95.5705 122.019 98.629 123.599C101.761 125.118 104.242 127.108 106.072 129.569C107.902 132.03 108.9 134.775 109.065 137.806L105.998 138.302C105.921 134.41 104.173 131.12 100.757 128.433C97.407 125.753 93.0445 124.144 87.6694 123.605C83.887 123.226 80.4394 123.517 77.3266 124.477C74.2205 125.371 71.6948 126.826 69.7495 128.841C67.8772 130.797 66.8011 133.167 66.5211 135.952C66.1411 139.732 67.3342 142.865 70.1003 145.353C72.9328 147.847 77.1523 150.212 82.7589 152.449L88.5611 154.738C94.5591 157.081 99.1401 159.851 102.304 163.048C105.475 166.179 106.82 170.131 106.34 174.905C105.987 178.42 104.678 181.436 102.414 183.955C100.157 186.408 97.1596 188.218 93.4229 189.383C89.7526 190.556 85.5617 190.906 80.8503 190.434ZM80.1903 196.998C75.0144 196.479 70.4161 195.215 66.3955 193.204C62.448 191.134 59.2605 188.504 56.8331 185.314C54.4788 182.064 53.1068 178.376 52.7171 174.252L55.6837 173.745C55.9873 177.393 57.1671 180.659 59.2229 183.544C61.3519 186.369 64.2342 188.701 67.87 190.539C71.5057 192.377 75.7125 193.535 80.4903 194.014C85.9317 194.56 90.7663 194.14 94.9942 192.756C99.295 191.312 102.734 189.111 105.31 186.155C107.959 183.138 109.497 179.508 109.923 175.265C110.49 169.628 108.986 164.923 105.411 161.149C101.836 157.375 96.6011 154.104 89.7074 151.337L84.0047 149.057C79.3005 147.179 75.7378 145.281 73.3165 143.364C70.8951 141.447 69.8245 139.096 70.1045 136.311C70.4311 133.062 72.2173 130.629 75.4631 129.012C78.7156 127.329 82.6644 126.72 87.3095 127.186C91.8218 127.638 95.4446 128.939 98.1777 131.088C100.911 133.238 102.326 135.824 102.425 138.848L99.458 139.354C99.5586 137.02 98.4546 135.001 96.146 133.296C93.9038 131.597 90.8583 130.555 87.0095 130.17C83.3598 129.804 80.1709 130.187 77.443 131.32C74.7814 132.46 73.3372 134.157 73.1106 136.412C72.9039 138.467 73.8985 140.241 76.0944 141.734C78.3567 143.233 81.3555 144.74 85.091 146.253L90.5946 148.512C98.384 151.704 104.209 155.436 108.069 159.708C111.936 163.913 113.543 169.265 112.89 175.763C112.416 180.471 110.699 184.552 107.738 188.005C104.849 191.4 101.013 193.895 96.2272 195.491C91.5082 197.095 86.1626 197.597 80.1903 196.998Z" fill="white"/>
<ellipse cx="84.9773" cy="160.63" rx="77.1258" ry="77.0143" fill="#FFD558"/>
<path d="M79.4688 102.319L94.343 100.669L99.852 107.82L99.3011 117.722H79.4688V102.319Z" fill="#302F2D"/>
<path d="M83.9092 118.108L78.2786 119.165C78.0669 119.205 77.9026 119.189 77.7856 119.119C77.6776 119.036 77.6037 118.888 77.5638 118.676L75.5256 107.851C75.4858 107.639 75.502 107.48 75.5744 107.374C75.6557 107.255 75.8022 107.176 76.0139 107.136L81.6445 106.079C83.0369 105.818 84.1196 105.903 84.8928 106.334C85.6771 106.764 86.1783 107.557 86.3964 108.716L87.3777 113.928C87.5958 115.087 87.4176 116.008 86.8429 116.692C86.2795 117.375 85.3015 117.847 83.9092 118.108ZM79.8059 109.728L80.8753 115.408L82.8636 115.035C83.1309 114.985 83.3133 114.881 83.4106 114.725C83.5191 114.566 83.5472 114.348 83.4948 114.069L82.7304 110.009C82.678 109.731 82.5734 109.543 82.4167 109.446C82.269 109.335 82.0615 109.305 81.7942 109.355L79.8059 109.728ZM97.1603 115.62L90.7444 116.825C90.5328 116.864 90.3684 116.849 90.2514 116.779C90.1434 116.695 90.0695 116.548 90.0297 116.336L87.9914 105.51C87.9516 105.299 87.9679 105.14 88.0402 105.034C88.1216 104.915 88.2681 104.836 88.4797 104.796L93.8096 103.796C94.9012 103.591 95.7486 103.651 96.3518 103.976C96.9529 104.289 97.3352 104.881 97.4988 105.749L97.6498 106.551C97.7379 107.019 97.7267 107.419 97.6162 107.751C97.5148 108.07 97.3106 108.333 97.0037 108.541C97.7292 108.474 98.3044 108.619 98.7294 108.978C99.1544 109.336 99.4434 109.922 99.5965 110.735L99.8858 112.272C100.062 113.207 99.9247 113.948 99.4739 114.494C99.0342 115.038 98.2631 115.413 97.1603 115.62ZM92.1723 107.043L92.512 108.848L93.9322 108.581C94.1438 108.541 94.2893 108.456 94.3685 108.326C94.4589 108.194 94.4832 108.016 94.4412 107.794L94.3532 107.326C94.3112 107.103 94.2241 106.946 94.0917 106.856C93.9705 106.763 93.8041 106.737 93.5925 106.777L92.1723 107.043ZM92.9964 111.42L93.3675 113.392L95.5396 112.984C95.7512 112.944 95.8967 112.859 95.9759 112.729C96.0664 112.597 96.0906 112.419 96.0487 112.197L95.926 111.545C95.8841 111.322 95.798 111.171 95.6677 111.092C95.5465 110.999 95.3801 110.973 95.1684 111.013L92.9964 111.42Z" fill="#2558DC"/>
<rect x="79.4688" y="138.626" width="28.6467" height="12.1022" fill="#F1F1F1"/>
<ellipse cx="84.1166" cy="161.818" rx="79.8803" ry="79.7648" fill="#1341A3"/>
<ellipse cx="92.3804" cy="162.368" rx="71.6168" ry="77.0143" fill="#F53848"/>
<ellipse cx="92.3804" cy="162.368" rx="71.6168" ry="77.0143" fill="#1E90FF"/>
<path d="M91.9717 195.011C86.2896 195.087 81.5934 194.071 77.883 191.962C74.1715 189.772 72.1309 186.841 71.7612 183.167L75.2295 182.161C75.2661 184.879 76.8174 187.138 79.8833 188.936C83.0281 190.653 87.0414 191.479 91.9232 191.413C96.965 191.345 101.034 190.371 104.13 188.49C107.307 186.608 108.876 184.228 108.837 181.349C108.8 178.631 107.45 176.45 104.786 174.806C102.123 173.162 98.5017 171.732 93.9228 170.514L86.451 168.455C76.4886 165.71 68.9569 162.172 63.8558 157.842C58.7547 153.513 56.1524 147.51 56.049 139.834C55.9746 134.317 57.4295 129.419 60.4134 125.141C63.4764 120.781 67.6321 117.326 72.8806 114.777C78.2091 112.226 84.2346 110.906 90.9571 110.815C97.0393 110.733 102.535 111.659 107.443 113.593C112.431 115.445 116.55 118.148 119.799 121.704C123.129 125.257 125.266 129.427 126.211 134.213L122.743 135.219C121.966 130.991 120.115 127.297 117.191 124.138C114.267 120.978 110.552 118.549 106.047 116.85C101.541 115.151 96.5275 114.339 91.0055 114.413C84.9233 114.495 79.4965 115.687 74.7249 117.991C70.0323 120.213 66.3108 123.222 63.5604 127.018C60.8901 130.812 59.5878 135.148 59.6535 140.025C59.7419 146.582 62.0938 151.828 66.7094 155.765C71.4038 159.62 78.2894 162.727 87.3661 165.084L94.8362 167.023C100.379 168.468 104.685 170.249 107.755 172.367C110.825 174.485 112.385 177.383 112.435 181.061C112.49 185.139 110.654 188.482 106.927 191.091C103.199 193.621 98.2139 194.927 91.9717 195.011ZM92.0783 202.927C84.5556 203.028 78.2113 201.474 73.0452 198.264C67.9582 194.974 64.9384 190.656 63.9858 185.311L67.5742 184.303C68.2769 188.932 70.8079 192.616 75.1672 195.357C79.6065 198.096 85.2274 199.42 92.0299 199.329C96.9917 199.262 101.343 198.444 105.084 196.874C108.825 195.304 111.717 193.146 113.761 190.4C115.805 187.653 116.804 184.521 116.756 181.003C116.691 176.126 114.798 172.312 111.079 169.563C107.359 166.734 102.246 164.484 95.74 162.812L88.3899 160.872C80.598 158.817 74.5992 156.179 70.3935 152.956C66.1878 149.734 64.0484 145.404 63.9751 139.967C63.9201 135.89 65.0321 132.276 67.3109 129.126C69.6697 125.976 72.918 123.493 77.0558 121.678C81.1926 119.783 85.8619 118.801 91.0637 118.731C95.9455 118.665 100.317 119.366 104.179 120.834C108.12 122.22 111.349 124.256 113.867 126.941C116.384 129.627 117.947 132.764 118.556 136.355L114.968 137.363C114.345 132.733 111.814 129.048 107.375 126.309C103.015 123.568 97.5946 122.242 91.1122 122.329C86.5506 122.39 82.4793 123.205 78.8985 124.772C75.3166 126.26 72.5031 128.337 70.4579 131.003C68.4916 133.589 67.5311 136.561 67.5764 139.919C67.6378 144.476 69.4869 148.05 73.1238 150.64C76.8407 153.23 82.1939 155.477 89.1833 157.382L96.4134 159.324C103.884 161.303 109.723 163.984 113.931 167.366C118.138 170.668 120.28 175.198 120.358 180.955C120.415 185.192 119.265 188.966 116.908 192.277C114.551 195.507 111.223 198.071 106.927 199.968C102.71 201.864 97.7604 202.85 92.0783 202.927ZM92.185 210.842C85.9428 210.926 80.2878 210.043 75.2201 208.191C70.2314 206.259 66.0727 203.556 62.7441 200.082C59.4945 196.527 57.3566 192.317 56.3305 187.453L59.7989 186.447C60.6573 190.754 62.5086 194.487 65.3528 197.648C68.2758 200.728 72.03 203.116 76.6154 204.814C81.2007 206.512 86.3745 207.322 92.1365 207.244C98.6989 207.156 104.406 206 109.259 203.775C114.191 201.47 117.991 198.38 120.66 194.506C123.409 190.55 124.748 186.014 124.679 180.896C124.588 174.1 122.154 168.695 117.377 164.681C112.6 160.666 105.914 157.477 97.3172 155.114L90.2071 153.17C84.3424 151.569 79.836 149.791 76.6879 147.834C73.5399 145.877 71.9432 143.219 71.8979 139.861C71.8451 135.943 73.6438 132.8 77.2939 130.432C80.9429 127.984 85.5684 126.722 91.1704 126.647C96.6124 126.573 101.109 127.633 104.661 129.824C108.212 132.016 110.252 134.907 110.781 138.499L107.312 139.505C107.115 136.709 105.523 134.451 102.539 132.732C99.6338 131.011 95.8606 130.182 91.2189 130.245C86.8173 130.304 83.0673 131.194 79.9688 132.915C76.9503 134.635 75.4594 136.854 75.496 139.573C75.5294 142.051 76.9569 144.031 79.7783 145.513C82.6799 146.993 86.4606 148.382 91.1206 149.679L97.9906 151.626C107.713 154.374 115.166 158.033 120.351 162.601C125.534 167.09 128.178 173.252 128.284 181.088C128.36 186.765 126.868 191.863 123.807 196.383C120.826 200.821 116.59 204.317 111.102 206.87C105.693 209.421 99.3876 210.746 92.185 210.842Z" fill="white"/>
</svg>
